<?xml version="1.0" encoding="utf-8"?>
<!-- Generator: Adobe Illustrator 27.5.0, SVG Export Plug-In . SVG Version: 6.00 Build 0)  -->
<svg version="1.1" id="Capa_1" xmlns="http://www.w3.org/2000/svg" xmlns:xlink="http://www.w3.org/1999/xlink" x="0px" y="0px"
	 viewBox="0 0 2122 2122" style="enable-background:new 0 0 2122 2122;" xml:space="preserve">
<g>
	<path style="fill:#74C6C8;" d="M1878.121,1060.668c0,451.461-365.988,817.457-817.465,817.457
		c-451.465,0-817.461-365.996-817.461-817.457c0-451.477,365.996-817.469,817.461-817.469
		C1512.133,243.199,1878.121,609.191,1878.121,1060.668z"/>
	<g>
		<path style="fill:#63B87B;" d="M1325.367,1342.117c-20.813-27.176,1.266-52.414,8.984-79.769
			c5.367-19.051,4.492-45.559-9.402-61.266c-14.598-16.48-40.168-21.027-60.941-23.863c-44.375-6.039-89.16-2.391-133.621-6.102
			c-28.063-2.34-56.223-4.113-84.102-8.258c-24.973-3.707-53.934-7.816-75.379-22.313c-17.473-11.816-34.906-33.918-38.813-55.047
			c-2.992-16.266,6.949-30.09,17.773-41.051c15.914-16.137,34.086-31.059,43.195-52.469c4.219-9.899,6.773-20.469,7.074-31.094
			c-18.473-8.5-35.551-22.816-49.305-43.199c-9.027-13.375,12.594-25.844,21.535-12.59c6.098,9.039,12.953,16.516,20.316,22.484
			c-4.969-10.41-11.422-19.91-16.77-30.266c-13.449-25.969-15.719-54.516-3.676-81.348c8.305-18.504,21.262-38.246,22.031-59.055
			c0.703-18.981,0.109-37.086-5.531-55.395c-10.273-33.203-29.574-63.266-37.488-97.238c-6.731-28.93-5.883-59.891,1.598-88.66
			c12.414-47.723,43.004-85.973,82.094-115.117c42.633-31.781,91.246-54.004,138.484-77.879
			c31.27-15.801,63.105-32.43,91.215-53.684c-0.035-0.008-0.07-0.016-0.105-0.023c-7.309-1.879-14.672-3.629-22.051-5.309
			c-1.5-0.344-3.004-0.684-4.504-1.016c-7.539-1.672-15.105-3.27-22.723-4.73c-0.063-0.012-0.125-0.023-0.184-0.035
			c-13.875-2.66-27.895-4.926-42.012-6.871c-10.871-1.496-21.793-2.824-32.789-3.891c-1.5-0.145-3.008-0.262-4.508-0.398
			c-6.379-0.586-12.773-1.09-19.191-1.527c-2.363-0.16-4.73-0.309-7.098-0.449c-5.863-0.348-11.746-0.621-17.641-0.844
			c-2.336-0.09-4.66-0.195-6.996-0.266c-8.035-0.234-16.09-0.383-24.184-0.383c-7.855,0-15.676,0.137-23.48,0.359
			c-2.484,0.07-4.949,0.188-7.43,0.281c-5.367,0.199-10.719,0.43-16.055,0.734c-2.824,0.16-5.648,0.348-8.469,0.535
			c-5.07,0.34-10.133,0.727-15.18,1.16c-2.762,0.234-5.527,0.469-8.281,0.734c-5.438,0.52-10.855,1.109-16.262,1.738
			c-2.238,0.262-4.496,0.492-6.731,0.77c-4.137,0.516-8.238,1.125-12.355,1.703c-0.68,0.094-1.359,0.184-2.031,0.281
			c-2.836,0.402-5.688,0.738-8.508,1.168c-0.113,0.02-0.223,0.039-0.336,0.059c-2.133,0.328-4.238,0.73-6.363,1.074
			c-0.984,0.156-1.965,0.332-2.949,0.5c-0.477,0.078-0.953,0.16-1.426,0.238c-3.84,0.641-7.691,1.246-11.512,1.941
			c-2.156,0.395-4.297,0.828-6.453,1.238c-0.273,0.051-0.543,0.109-0.816,0.164l0.008-0.004c-0.168,0.031-0.34,0.07-0.516,0.102
			c-9.043,1.738-18.027,3.637-26.953,5.676c-0.258,0.059-0.512,0.117-0.77,0.176c-8.887,2.039-17.715,4.215-26.488,6.531
			c-0.016,0.004-0.031,0.008-0.043,0.012c-0.293,0.078-0.59,0.156-0.887,0.234c-1.055,0.273-2.106,0.547-3.156,0.832
			c-5.16,1.391-10.297,2.84-15.414,4.328c-1.598,0.465-3.188,0.941-4.781,1.414c-0.234,0.07-0.465,0.145-0.699,0.215
			c-4.68,1.398-9.352,2.824-14,4.301c-0.254,0.082-0.508,0.152-0.758,0.23c-0.836,0.27-1.668,0.555-2.508,0.824
			c-8.289,2.68-16.512,5.492-24.676,8.426c-0.09,0.031-0.18,0.066-0.273,0.098c-8.152,2.938-16.242,5.992-24.273,9.172
			c-0.441,0.176-0.891,0.355-1.34,0.527c-1.18,0.469-2.367,0.934-3.547,1.406c-4.566,1.844-9.109,3.738-13.637,5.664
			c-1.379,0.586-2.766,1.164-4.145,1.758c-0.594,0.258-1.176,0.527-1.766,0.785c-4.449,1.93-8.887,3.883-13.289,5.891
			c-0.691,0.316-1.391,0.629-2.082,0.949c-1.058,0.484-2.094,0.996-3.148,1.484c-14.418,6.695-28.602,13.797-42.551,21.293
			c-0.59,0.316-1.184,0.641-1.773,0.957c-1.609,0.859-3.215,1.715-4.809,2.59c-3.781,2.078-7.539,4.199-11.285,6.336
			c-2.473,1.41-4.934,2.828-7.391,4.266c-3.609,2.109-7.215,4.234-10.789,6.395c-2.559,1.547-5.09,3.125-7.621,4.699
			c-3.473,2.152-6.957,4.289-10.398,6.492c-0.352,0.227-0.699,0.461-1.051,0.688c-2.973,1.91-5.906,3.871-8.848,5.82
			c-5.102,3.371-10.152,6.797-15.172,10.281c-1.973,1.367-3.973,2.711-5.93,4.098c-0.891,0.633-1.773,1.273-2.664,1.906
			c-0.012,0.012-0.027,0.02-0.039,0.031c-2.965,2.113-5.902,4.266-8.836,6.418c-1.211,0.887-2.438,1.754-3.641,2.645
			c-0.973,0.719-1.926,1.445-2.891,2.168c-0.715,0.539-1.422,1.09-2.141,1.633c-2.809,2.117-5.617,4.25-8.402,6.406
			c-0.504,0.391-1.016,0.766-1.519,1.156c-0.984,0.766-1.961,1.539-2.945,2.309c-1.598,1.258-3.172,2.543-4.762,3.813
			c-2.496,1.992-5.012,3.965-7.484,5.988c-0.809,0.656-1.609,1.324-2.406,1.984c-3.902,3.211-7.777,6.457-11.617,9.742
			c-0.027,0.02-0.051,0.043-0.082,0.066c-0.461,0.398-0.941,0.785-1.406,1.184c-1.883,1.613-3.715,3.273-5.574,4.898
			c-2.422,2.117-4.855,4.223-7.25,6.367c-0.793,0.715-1.594,1.426-2.387,2.145c-0.336,0.301-0.664,0.613-0.996,0.914
			c-2.215,2.008-4.402,4.043-6.598,6.07c-1.383,1.281-2.785,2.543-4.164,3.836c-0.637,0.602-1.285,1.199-1.926,1.801
			c-1.113,1.055-2.207,2.141-3.316,3.203c-2.152,2.051-4.297,4.117-6.426,6.191c-0.766,0.75-1.551,1.48-2.309,2.23
			c-0.449,0.438-0.898,0.867-1.336,1.305c-2.066,2.043-4.094,4.133-6.141,6.195c-1.82,1.84-3.656,3.664-5.461,5.52
			c-0.344,0.352-0.695,0.695-1.043,1.051c-0.141,0.148-0.281,0.289-0.422,0.434c-4.406,4.555-8.762,9.16-13.059,13.816
			c-0.832,0.902-1.641,1.828-2.469,2.734c-4.051,4.426-8.055,8.883-12.004,13.395c-1.645,1.879-3.258,3.777-4.883,5.672
			c-3.145,3.652-6.262,7.332-9.34,11.039c-1.68,2.027-3.352,4.059-5.012,6.098c-3.133,3.856-6.223,7.742-9.289,11.652
			c-1.422,1.813-2.859,3.609-4.262,5.434c-4.398,5.711-8.75,11.469-13,17.297c7.824,10.402,17.461,19.797,28.949,27.992
			c3.41,2.434,6.895,4.738,10.41,6.992c0.816,0.523,1.629,1.047,2.453,1.563c3.461,2.168,6.953,4.277,10.488,6.313
			c0.324,0.188,0.648,0.363,0.977,0.547c3.367,1.918,6.762,3.777,10.184,5.605c0.809,0.43,1.617,0.867,2.43,1.297
			c3.629,1.91,7.277,3.793,10.941,5.644c0.453,0.227,0.906,0.449,1.367,0.68c2.758,1.383,5.512,2.758,8.285,4.121
			c1.887,0.93,3.777,1.863,5.668,2.789v-0.004c11.688,5.727,23.391,11.422,34.824,17.59c31.141,16.805,62.195,37.754,79.941,69.371
			c14.906,26.566,32.223,72.859,3.078,95.148c-18.211,13.922-47.949,25.406-47.688,52.652c0.371,36.699,34.863,57.547,61.73,75.902
			c12.512,8.551,23.559,19.488,36.316,27.504c13.348,8.41,27.555,15.211,42.348,20.707c26.238,9.754,53.836,16.156,79.48,27.445
			c21.914,9.648,41.082,23.094,51.344,45.367c10.797,23.414,7.922,51.57-2.34,74.68c-23.172,52.156-78.684,77.805-108.617,124.934
			c-33.316,52.394-29.75,125.086-17.957,183.652c6.012,29.871,15.094,58.754,35.555,81.988
			c21.215,24.086,47.68,40.207,74.914,56.516c26.602,15.922,52.227,33.613,71.754,58.078c13.25,16.586,24.586,34.848,34.223,53.949
			c0.797,1.578,1.621,3.148,2.398,4.734c0.004,0.016,0.008,0.027,0.02,0.039c0.906,1.871,1.762,3.773,2.644,5.664
			c0.91,1.965,1.828,3.934,2.703,5.922c0.82,1.832,1.602,3.676,2.387,5.52c0.984,2.316,1.941,4.645,2.875,6.973
			c0.594,1.492,1.199,2.973,1.777,4.465c1.508,3.902,2.969,7.813,4.344,11.742c13.648,38.898,22.207,79.5,32.02,119.672
			c0,0.004,0,0.004,0,0.004c0.055,0.004,0.121,0.008,0.18,0.02c14.18,1.523,28.476,2.688,42.867,3.488
			c0.394,0.023,0.785,0.055,1.176,0.074c6.492,0.355,13.016,0.602,19.551,0.801c0.941,0.031,1.875,0.086,2.816,0.109
			c7.336,0.203,14.695,0.305,22.078,0.305c6.672,0,13.32-0.086,19.957-0.25c0.227-0.008,0.453-0.016,0.68-0.027
			c3.773-0.098,7.535-0.258,11.297-0.406c1.258-0.051,2.523-0.078,3.781-0.137c1.18-0.051,2.367-0.078,3.547-0.137
			c0.418-0.016,0.832-0.051,1.25-0.074c4.883-0.242,9.746-0.539,14.602-0.871c1.586-0.102,3.172-0.207,4.758-0.316
			c5.324-0.391,10.629-0.828,15.926-1.32c0.559-0.051,1.121-0.082,1.68-0.137c0.012-0.012,0.02-0.016,0.031-0.02
			c15.57-11.977,30.207-25.043,41.527-40.926c1.688-2.359,3.254-4.762,4.781-7.172c0.422-0.684,0.832-1.371,1.246-2.055
			c1.117-1.844,2.199-3.703,3.227-5.574c0.363-0.668,0.734-1.332,1.086-2c1.285-2.414,2.512-4.855,3.66-7.316
			c0.02-0.047,0.043-0.086,0.063-0.137c1.258-2.707,2.426-5.457,3.527-8.223c0.086-0.227,0.164-0.449,0.254-0.672
			c0.996-2.543,1.93-5.105,2.805-7.695c0.094-0.277,0.191-0.555,0.281-0.836c1.289-3.871,2.398-7.797,3.43-11.742
			c0.23-0.867,0.449-1.734,0.664-2.602c0.91-3.699,1.738-7.426,2.457-11.184c0,0.012-0.008,0.02-0.008,0.027
			c0.047-0.25,0.113-0.488,0.164-0.738c-0.012,0-0.027,0-0.035,0c0.594-3.113,1.148-6.238,1.613-9.398
			c6.887-47.293,0.574-98.27-0.449-144.469c-1.168-52.738,13.691-96.594,46.371-138.332c21.953-28.07,46.859-53.527,72.938-77.754
			c9.605-8.941,19.516-17.871,29.086-27.137C1344.652,1361.195,1333.289,1352.457,1325.367,1342.117z M1095.738,1761.781
			c31.895,4.117,64.781,6.102,97.43,4.652C1160.52,1767.883,1127.629,1765.898,1095.738,1761.781z M1193.301,1766.43
			c3.277-0.145,6.547-0.375,9.82-0.59C1199.848,1766.055,1196.578,1766.285,1193.301,1766.43z"/>
		<path style="fill:#5DB9BE;" d="M1208.906,1756.188c-1.055,7.199-2.461,14.297-4.191,21.293c-0.215,0.867-0.434,1.734-0.664,2.602
			c-1.031,3.945-2.141,7.871-3.43,11.742c-0.09,0.281-0.188,0.559-0.281,0.836c-0.875,2.59-1.809,5.152-2.805,7.695
			c-0.09,0.223-0.168,0.445-0.254,0.672c-1.102,2.766-2.27,5.516-3.527,8.223c-0.02,0.051-0.043,0.09-0.063,0.137
			c-1.148,2.461-2.375,4.902-3.66,7.316c-0.352,0.668-0.723,1.332-1.086,2c-1.027,1.871-2.109,3.73-3.227,5.574
			c-0.414,0.684-0.824,1.371-1.246,2.055c-1.527,2.41-3.094,4.813-4.781,7.172c-11.32,15.883-25.957,28.949-41.527,40.926
			c2.914-0.277,5.84-0.527,8.75-0.828c3.074-0.324,6.133-0.691,9.199-1.055c4-0.465,8-0.93,11.984-1.457
			c3.109-0.402,6.203-0.855,9.301-1.301c3.918-0.555,7.832-1.125,11.73-1.742c3.109-0.492,6.203-1.016,9.301-1.539
			c3.863-0.66,7.723-1.324,11.566-2.039c3.09-0.57,6.172-1.168,9.254-1.773c3.828-0.75,7.648-1.523,11.453-2.332
			c3.055-0.645,6.098-1.313,9.141-1.988c3.813-0.852,7.617-1.738,11.414-2.645c2.996-0.711,5.988-1.438,8.969-2.188
			c3.816-0.957,7.617-1.949,11.406-2.957c2.934-0.785,5.867-1.57,8.785-2.379c3.82-1.066,7.625-2.172,11.418-3.293
			c2.855-0.84,5.711-1.672,8.559-2.543c3.863-1.18,7.699-2.418,11.547-3.656c2.73-0.879,5.469-1.754,8.191-2.66
			c3.961-1.324,7.895-2.707,11.832-4.09c2.563-0.906,5.141-1.785,7.691-2.711c4.156-1.508,8.289-3.086,12.41-4.66
			c2.293-0.875,4.598-1.723,6.879-2.617c4.637-1.816,9.238-3.711,13.836-5.613c1.734-0.715,3.488-1.402,5.223-2.133
			c12.723-5.359,25.285-11.039,37.672-17.02c1.188-0.574,2.352-1.184,3.535-1.758c4.953-2.422,9.883-4.863,14.773-7.375
			c1.93-0.996,3.836-2.035,5.754-3.043c4.117-2.152,8.238-4.32,12.313-6.547c2.172-1.184,4.313-2.41,6.469-3.613
			c3.793-2.117,7.578-4.234,11.328-6.41c2.277-1.32,4.523-2.672,6.781-4.008c3.598-2.129,7.188-4.262,10.742-6.445
			c2.316-1.418,4.609-2.871,6.906-4.313c3.457-2.164,6.914-4.348,10.332-6.563c2.336-1.512,4.648-3.047,6.957-4.578
			c3.352-2.219,6.684-4.449,10-6.719c2.313-1.582,4.609-3.18,6.902-4.781c3.277-2.293,6.547-4.609,9.793-6.949
			c2.266-1.629,4.527-3.281,6.777-4.938c3.219-2.379,6.426-4.781,9.613-7.195c2.215-1.688,4.422-3.379,6.621-5.078
			c3.184-2.469,6.344-4.969,9.488-7.484c2.145-1.715,4.289-3.434,6.418-5.168c3.16-2.582,6.293-5.199,9.418-7.824
			c2.051-1.73,4.113-3.449,6.148-5.199c3.16-2.719,6.293-5.473,9.414-8.238c1.941-1.715,3.895-3.426,5.82-5.16
			c3.207-2.895,6.367-5.828,9.531-8.77c1.781-1.668,3.578-3.309,5.352-4.984c3.324-3.156,6.609-6.359,9.883-9.57
			c1.547-1.52,3.121-3.016,4.656-4.551c3.645-3.621,7.23-7.301,10.801-10.996c1.125-1.164,2.273-2.297,3.387-3.469
			c4.297-4.496,8.543-9.051,12.734-13.645c0.367-0.398,0.746-0.785,1.113-1.188c-0.039,0.023-0.074,0.047-0.113,0.07
			c-51.406,35.906-106.527,66.398-164.68,89.977C1407.004,1738.672,1308.469,1756.031,1208.906,1756.188z"/>
		<path style="fill:#5DB9BE;" d="M935.625,1741.91c-0.578-1.492-1.184-2.973-1.777-4.465c-0.934-2.328-1.891-4.656-2.875-6.973
			c-0.785-1.844-1.566-3.688-2.387-5.52c-0.875-1.988-1.793-3.957-2.703-5.922c-0.883-1.891-1.738-3.793-2.644-5.664
			c-0.012-0.012-0.016-0.023-0.02-0.039l0,0c-0.777-1.586-1.602-3.156-2.398-4.734c-176.832-60.914-333.324-179.105-427.074-343.523
			c-62.324-109.301-95.074-233.699-96.488-359.453C395.836,877.832,426.641,753,486.246,640.324
			c-2.773-1.363-5.527-2.738-8.285-4.121c-0.461-0.23-0.914-0.453-1.367-0.68c-3.664-1.852-7.313-3.734-10.941-5.644
			c-0.813-0.43-1.621-0.867-2.43-1.297c-3.422-1.828-6.816-3.688-10.184-5.605c-0.328-0.184-0.652-0.359-0.977-0.547
			c-3.535-2.035-7.027-4.144-10.488-6.313c-0.824-0.516-1.637-1.039-2.453-1.563c-3.516-2.254-7-4.559-10.41-6.992
			c-11.488-8.195-21.125-17.59-28.949-27.992c4.25-5.828,8.602-11.586,13-17.297c1.402-1.824,2.84-3.621,4.262-5.434
			c3.066-3.91,6.156-7.797,9.289-11.652c0.625-0.769,1.227-1.559,1.855-2.328c-1.035,1.262-2.078,2.516-3.102,3.781
			c-1.313,1.621-2.625,3.242-3.926,4.871c-2.512,3.156-5.004,6.328-7.469,9.519c-1.355,1.754-2.699,3.508-4.039,5.27
			c-2.391,3.145-4.77,6.305-7.117,9.488c-1.359,1.84-2.699,3.691-4.043,5.543c-2.297,3.168-4.586,6.344-6.836,9.543
			c-1.324,1.887-2.633,3.789-3.941,5.688c-2.227,3.219-4.449,6.438-6.625,9.691c-1.27,1.887-2.5,3.797-3.754,5.695
			c-2.176,3.316-4.363,6.625-6.5,9.977c-1.082,1.695-2.129,3.418-3.199,5.125c-7.492,11.945-14.68,24.102-21.559,36.453
			c-1.125,2.016-2.277,4.019-3.383,6.043c-1.684,3.086-3.313,6.207-4.957,9.32c-1.32,2.484-2.652,4.965-3.941,7.465
			c-1.543,2.988-3.043,6.004-4.547,9.016c-1.332,2.66-2.672,5.32-3.973,7.996c-1.441,2.961-2.844,5.938-4.254,8.918
			c-1.309,2.769-2.609,5.539-3.887,8.328c-1.348,2.941-2.668,5.895-3.984,8.856c-1.273,2.871-2.535,5.746-3.777,8.633
			c-1.254,2.93-2.5,5.867-3.727,8.813c-1.23,2.961-2.441,5.93-3.641,8.91c-1.172,2.914-2.336,5.832-3.477,8.766
			c-1.188,3.063-2.348,6.141-3.508,9.223c-1.078,2.883-2.164,5.762-3.211,8.66c-1.164,3.211-2.285,6.441-3.406,9.668
			c-0.973,2.801-1.957,5.594-2.902,8.406c-1.164,3.469-2.277,6.961-3.391,10.449c-0.84,2.613-1.703,5.215-2.516,7.84
			c-1.305,4.227-2.547,8.484-3.789,12.742c-0.555,1.91-1.152,3.809-1.691,5.727c-1.734,6.121-3.395,12.27-4.992,18.442
			c-0.559,2.148-1.059,4.316-1.594,6.469c-1.035,4.133-2.066,8.266-3.031,12.418c-0.602,2.578-1.156,5.172-1.73,7.758
			c-0.836,3.77-1.676,7.535-2.465,11.324c-0.566,2.73-1.09,5.477-1.629,8.211c-0.723,3.68-1.441,7.352-2.117,11.043
			c-0.512,2.813-0.996,5.637-1.477,8.457c-0.629,3.652-1.242,7.305-1.82,10.973c-0.449,2.859-0.879,5.723-1.297,8.59
			c-0.543,3.668-1.055,7.34-1.547,11.023c-0.379,2.879-0.75,5.758-1.105,8.645c-0.453,3.715-0.871,7.441-1.277,11.172
			c-0.305,2.863-0.617,5.731-0.895,8.602c-0.375,3.82-0.703,7.652-1.023,11.488c-0.234,2.797-0.477,5.59-0.684,8.395
			c-0.289,4.016-0.523,8.047-0.762,12.082c-0.152,2.645-0.328,5.281-0.461,7.93c-0.219,4.477-0.363,8.973-0.512,13.469
			c-0.07,2.219-0.172,4.43-0.227,6.652c-0.168,6.73-0.258,13.477-0.258,20.246c0,421.492,319.035,768.449,728.793,812.656
			c-9.813-40.172-18.371-80.773-32.02-119.672C938.594,1749.723,937.133,1745.813,935.625,1741.91z"/>
		<path style="fill:#36AF7B;" d="M1179.691,1833.504c1.688-2.359,3.254-4.762,4.781-7.172c0.422-0.684,0.832-1.371,1.246-2.055
			c1.117-1.844,2.199-3.703,3.227-5.574c0.363-0.668,0.734-1.332,1.086-2c1.285-2.414,2.512-4.855,3.66-7.316
			c0.02-0.047,0.043-0.086,0.063-0.137c1.258-2.707,2.426-5.457,3.527-8.223c0.086-0.227,0.164-0.449,0.254-0.672
			c0.996-2.543,1.93-5.105,2.805-7.695c0.094-0.277,0.191-0.555,0.281-0.836c1.289-3.871,2.398-7.797,3.43-11.742
			c0.23-0.867,0.449-1.734,0.664-2.602c0.969-3.934,1.867-7.895,2.613-11.895c-37.262,2.832-75.078,0.914-111.59-3.805
			c-58.719-7.582-118.258-23.117-172.52-48.453l0,0c0.004,0.016,0.008,0.027,0.02,0.039c0.906,1.871,1.762,3.773,2.644,5.664
			c0.91,1.965,1.828,3.934,2.703,5.922c0.82,1.832,1.602,3.676,2.387,5.52c0.984,2.316,1.941,4.645,2.875,6.973
			c0.594,1.492,1.199,2.973,1.777,4.465c1.508,3.902,2.969,7.813,4.344,11.742c13.648,38.898,22.207,79.5,32.02,119.672
			c0,0.004,0,0.004,0,0.004c0.055,0.004,0.121,0.008,0.18,0.02c14.18,1.523,28.476,2.688,42.867,3.488
			c0.394,0.023,0.785,0.055,1.176,0.074c6.492,0.355,13.016,0.602,19.551,0.801c0.941,0.031,1.875,0.086,2.816,0.109
			c7.336,0.203,14.695,0.305,22.078,0.305c6.672,0,13.32-0.086,19.957-0.25c0.227-0.008,0.453-0.016,0.68-0.027
			c3.773-0.098,7.535-0.258,11.297-0.406c1.258-0.051,2.523-0.078,3.781-0.137c1.18-0.051,2.367-0.078,3.547-0.137
			c0.418-0.016,0.832-0.051,1.25-0.074c4.883-0.242,9.746-0.539,14.602-0.871c1.586-0.102,3.172-0.207,4.758-0.316
			c5.324-0.391,10.629-0.828,15.926-1.32c0.559-0.051,1.121-0.082,1.68-0.137c0.012-0.012,0.02-0.016,0.031-0.02
			C1153.734,1862.453,1168.371,1849.387,1179.691,1833.504z"/>
		<path style="fill:#36AF7B;" d="M457.551,508.984c-4.051,4.426-8.055,8.883-12.004,13.395c-1.645,1.879-3.258,3.777-4.883,5.672
			c-3.145,3.652-6.262,7.332-9.34,11.039c-1.68,2.027-3.352,4.059-5.012,6.098c-3.133,3.856-6.223,7.742-9.289,11.652
			c-1.422,1.813-2.859,3.609-4.262,5.434c-4.398,5.711-8.75,11.469-13,17.297c7.824,10.402,17.461,19.797,28.949,27.992
			c3.41,2.434,6.895,4.738,10.41,6.992c0.816,0.523,1.629,1.047,2.453,1.563c3.461,2.168,6.953,4.277,10.488,6.313
			c0.324,0.188,0.648,0.363,0.977,0.547c3.367,1.918,6.762,3.777,10.184,5.605c0.809,0.43,1.617,0.867,2.43,1.297
			c3.629,1.91,7.277,3.793,10.941,5.644c0.453,0.227,0.906,0.449,1.367,0.68c2.758,1.383,5.512,2.758,8.285,4.121
			c1.887,0.93,3.777,1.863,5.668,2.789v-0.004c41.383-95.203,112.816-177.641,190.914-244.246
			c66.621-56.816,141.871-106.723,223.191-140.984l0.008-0.004c-0.168,0.031-0.34,0.07-0.516,0.102
			c-9.043,1.738-18.027,3.637-26.953,5.676c-0.258,0.059-0.512,0.117-0.77,0.176c-8.887,2.039-17.715,4.215-26.488,6.531
			c-0.016,0.004-0.031,0.008-0.043,0.012c-0.293,0.078-0.59,0.156-0.887,0.234c-1.055,0.273-2.106,0.547-3.156,0.832
			c-5.16,1.391-10.297,2.84-15.414,4.328c-1.598,0.465-3.188,0.941-4.781,1.414c-0.234,0.07-0.465,0.145-0.699,0.215
			c-4.68,1.398-9.352,2.824-14,4.301c-0.254,0.082-0.508,0.152-0.758,0.23c-0.836,0.27-1.668,0.555-2.508,0.824
			c-8.289,2.68-16.512,5.492-24.676,8.426c-0.09,0.031-0.18,0.066-0.273,0.098c-8.152,2.938-16.242,5.992-24.273,9.172
			c-0.441,0.176-0.891,0.355-1.34,0.527c-1.18,0.469-2.367,0.934-3.547,1.406c-4.566,1.844-9.109,3.738-13.637,5.664
			c-1.379,0.586-2.766,1.164-4.145,1.758c-0.594,0.258-1.176,0.527-1.766,0.785c-4.449,1.93-8.887,3.883-13.289,5.891
			c-0.691,0.316-1.391,0.629-2.082,0.949c-1.058,0.484-2.094,0.996-3.148,1.484c-14.418,6.695-28.602,13.797-42.551,21.293
			c-0.59,0.316-1.184,0.641-1.773,0.957c-1.609,0.859-3.215,1.715-4.809,2.59c-3.781,2.078-7.539,4.199-11.285,6.336
			c-2.473,1.41-4.934,2.828-7.391,4.266c-3.609,2.109-7.215,4.234-10.789,6.395c-2.559,1.547-5.09,3.125-7.621,4.699
			c-3.473,2.152-6.957,4.289-10.398,6.492c-0.352,0.227-0.699,0.461-1.051,0.688c-2.973,1.91-5.906,3.871-8.848,5.82
			c-5.102,3.371-10.152,6.797-15.172,10.281c-1.973,1.367-3.973,2.711-5.93,4.098c-0.891,0.633-1.773,1.273-2.664,1.906
			c-0.012,0.012-0.027,0.02-0.039,0.031c-2.965,2.113-5.902,4.266-8.836,6.418c-1.211,0.887-2.438,1.754-3.641,2.645
			c-0.973,0.719-1.926,1.445-2.891,2.168c-0.715,0.539-1.422,1.09-2.141,1.633c-2.809,2.117-5.617,4.25-8.402,6.406
			c-0.504,0.391-1.016,0.766-1.519,1.156c-0.984,0.766-1.961,1.539-2.945,2.309c-1.598,1.258-3.172,2.543-4.762,3.813
			c-2.496,1.992-5.012,3.965-7.484,5.988c-0.809,0.656-1.609,1.324-2.406,1.984c-3.902,3.211-7.777,6.457-11.617,9.742
			c-0.027,0.02-0.051,0.043-0.082,0.066c-0.461,0.398-0.941,0.785-1.406,1.184c-1.883,1.613-3.715,3.273-5.574,4.898
			c-2.422,2.117-4.855,4.223-7.25,6.367c-0.793,0.715-1.594,1.426-2.387,2.145c-0.336,0.301-0.664,0.613-0.996,0.914
			c-2.215,2.008-4.402,4.043-6.598,6.07c-1.383,1.281-2.785,2.543-4.164,3.836c-0.637,0.602-1.285,1.199-1.926,1.801
			c-1.113,1.055-2.207,2.141-3.316,3.203c-2.152,2.051-4.297,4.117-6.426,6.191c-0.766,0.75-1.551,1.48-2.309,2.23
			c-0.449,0.438-0.898,0.867-1.336,1.305c-2.066,2.043-4.094,4.133-6.141,6.195c-1.82,1.84-3.656,3.664-5.461,5.52
			c-0.344,0.352-0.695,0.695-1.043,1.051c-0.141,0.148-0.281,0.289-0.422,0.434c-4.406,4.555-8.762,9.16-13.059,13.816
			C459.188,507.152,458.379,508.078,457.551,508.984z"/>
		<path style="fill:#63B87B;" d="M1877.844,1039.301c-0.059-2.355-0.184-4.691-0.266-7.039c-0.164-4.742-0.313-9.488-0.559-14.211
			c-0.137-2.758-0.348-5.504-0.52-8.254c-0.262-4.285-0.504-8.578-0.832-12.844c-0.227-2.91-0.52-5.797-0.777-8.699
			c-0.355-4.094-0.695-8.195-1.113-12.27c-0.305-2.945-0.672-5.867-1.004-8.801c-0.461-4.012-0.898-8.023-1.414-12.019
			c-0.379-2.934-0.82-5.852-1.227-8.777c-0.555-3.965-1.094-7.938-1.707-11.887c-0.453-2.906-0.961-5.801-1.441-8.699
			c-0.652-3.941-1.297-7.883-2.008-11.805c-0.516-2.863-1.09-5.711-1.641-8.566c-0.758-3.926-1.5-7.859-2.316-11.769
			c-0.578-2.805-1.211-5.594-1.82-8.391c-0.863-3.934-1.719-7.875-2.637-11.789c-0.637-2.719-1.32-5.422-1.98-8.129
			c-0.977-3.965-1.945-7.93-2.98-11.867c-0.684-2.641-1.418-5.266-2.133-7.895c-1.086-3.98-2.168-7.957-3.309-11.91
			c-0.738-2.563-1.516-5.113-2.277-7.664c-1.199-3.992-2.398-7.984-3.656-11.949c-0.777-2.469-1.586-4.926-2.398-7.383
			c-1.313-4.031-2.641-8.059-4.02-12.063c-0.813-2.363-1.648-4.715-2.488-7.066c-1.438-4.063-2.895-8.113-4.395-12.144
			c-0.844-2.266-1.711-4.52-2.57-6.773c-1.57-4.102-3.16-8.195-4.797-12.262c-0.855-2.144-1.738-4.277-2.613-6.41
			c-1.711-4.148-3.438-8.285-5.211-12.398c-0.875-2.031-1.762-4.051-2.656-6.074c-1.844-4.188-3.715-8.363-5.629-12.516
			c-0.883-1.906-1.77-3.805-2.668-5.703c-1.992-4.246-4.02-8.473-6.09-12.68c-0.867-1.773-1.746-3.535-2.629-5.301
			c-2.152-4.301-4.34-8.582-6.566-12.844c-0.859-1.633-1.719-3.266-2.586-4.895c-2.316-4.359-4.676-8.699-7.074-13.016
			c-0.828-1.492-1.656-2.984-2.496-4.473c-2.492-4.422-5.023-8.824-7.598-13.195c-0.793-1.348-1.586-2.695-2.387-4.039
			c-2.68-4.488-5.398-8.953-8.156-13.387c-0.746-1.191-1.492-2.391-2.234-3.578c-2.879-4.57-5.805-9.113-8.77-13.625
			c-0.676-1.016-1.34-2.039-2.016-3.059c-3.094-4.656-6.234-9.277-9.414-13.863c-0.598-0.856-1.188-1.711-1.781-2.563
			c-3.316-4.746-6.688-9.453-10.102-14.121c-0.492-0.672-0.98-1.348-1.473-2.012c-3.566-4.848-7.191-9.656-10.867-14.422
			c-0.363-0.473-0.723-0.949-1.09-1.422c-3.844-4.969-7.746-9.891-11.703-14.766c-0.215-0.258-0.418-0.523-0.633-0.781
			c-4.152-5.102-8.355-10.152-12.629-15.152c-0.023-0.031-0.047-0.063-0.078-0.094c-4.07-4.766-8.207-9.473-12.387-14.145
			c-1.254-1.398-2.531-2.777-3.789-4.168c-2.977-3.277-5.965-6.547-8.996-9.773c-1.477-1.582-2.973-3.145-4.465-4.711
			c-2.906-3.051-5.832-6.086-8.785-9.094c-1.504-1.531-3.016-3.063-4.527-4.586c-3.141-3.141-6.305-6.254-9.492-9.348
			c-0.906-0.883-1.793-1.789-2.711-2.672c0,0.016,0,0.027-0.004,0.039c-2.137,23.852-5,48.66-13.723,70.348
			c7.309,10.688,14.277,21.848,20.813,33.672c37.602,68.078,57.141,222.43-60.082,136.422
			c-24.27-17.805-47.137-34.656-69.754-50.606c-8.059,6.918-15.977,14.016-23.496,21.551
			c-24.742,24.769-43.188,52.738-50.672,87.305c-6.813,31.508-7.426,68.18,9.168,97.008c21.195,36.824,60.445,50.305,101.125,42.898
			c33.121-6.039,66.563-18.543,100.387-10.043c48.563,12.18,88.766,40.699,93.016,93.805c4.121,51.621-14.48,102.328-23.93,152.402
			c-11.004,58.25-7.504,117.785,25.813,168.512c19.676,29.973,45.313,54.707,71.426,78.996c0.012,0.004,0.016,0.008,0.027,0.02
			c0.855-1.926,1.664-3.879,2.508-5.816c1.672-3.82,3.348-7.645,4.965-11.5c1.09-2.609,2.145-5.238,3.211-7.859
			c1.5-3.684,2.996-7.371,4.449-11.078c1.074-2.766,2.113-5.555,3.164-8.336c1.359-3.602,2.715-7.207,4.027-10.824
			c1.039-2.887,2.043-5.789,3.059-8.688c1.242-3.574,2.473-7.145,3.672-10.734c0.984-2.973,1.945-5.953,2.898-8.934
			c1.137-3.559,2.262-7.113,3.352-10.691c0.926-3.043,1.828-6.098,2.727-9.152c1.035-3.563,2.055-7.129,3.047-10.707
			c0.859-3.094,1.699-6.191,2.516-9.293c0.949-3.586,1.871-7.184,2.773-10.777c0.785-3.141,1.555-6.285,2.297-9.434
			c0.859-3.609,1.684-7.23,2.492-10.855c0.699-3.168,1.402-6.332,2.07-9.516c0.766-3.656,1.496-7.328,2.215-11.004
			c0.625-3.172,1.242-6.348,1.828-9.531c0.684-3.723,1.32-7.457,1.953-11.191c0.535-3.176,1.078-6.348,1.578-9.535
			c0.594-3.789,1.133-7.59,1.676-11.391c0.449-3.164,0.918-6.332,1.332-9.516c0.5-3.867,0.949-7.754,1.398-11.637
			c0.363-3.141,0.75-6.266,1.074-9.414c0.422-4.02,0.773-8.055,1.129-12.086c0.27-3.035,0.574-6.07,0.813-9.129
			c0.332-4.242,0.586-8.504,0.852-12.762c0.176-2.871,0.395-5.73,0.547-8.605c0.242-4.75,0.402-9.531,0.57-14.305
			c0.082-2.406,0.207-4.793,0.273-7.199c0.184-7.191,0.285-14.414,0.285-21.652
			C1878.121,1053.523,1878.023,1046.398,1877.844,1039.301z"/>
		<path style="fill:#6E382D;" d="M875.551,807.406c-22.52,0-40.77,18.254-40.77,40.762c0,22.523,18.25,40.773,40.77,40.773
			c22.516,0,40.766-18.25,40.766-40.773C916.316,825.66,898.066,807.406,875.551,807.406z"/>
		<path style="fill:#6E382D;" d="M1213.211,888.941c22.531,0,40.781-18.25,40.781-40.773c0-22.508-18.25-40.762-40.781-40.762
			c-22.508,0-40.758,18.254-40.758,40.762C1172.453,870.691,1190.703,888.941,1213.211,888.941z"/>
		<path style="fill:#6E382D;" d="M972.367,905.098c-8.941-13.254-30.563-0.785-21.535,12.59
			c13.754,20.383,30.832,34.699,49.305,43.199c48.25,22.207,106.055,4.609,139.313-49.172c8.488-13.723-13.098-26.238-21.535-12.59
			c-30.195,48.824-85.219,60.922-125.23,28.457C985.32,921.613,978.465,914.137,972.367,905.098z"/>
		<path style="fill:#ED7B82;" d="M1273.801,906.746c-60.207,0-109.016,23.797-109.016,53.152c0,29.352,48.809,53.148,109.016,53.148
			c60.199,0,109.016-23.797,109.016-53.148C1382.816,930.543,1334,906.746,1273.801,906.746z"/>
		<path style="fill:#ED7B82;" d="M810.059,906.746c-60.207,0-109.016,23.797-109.016,53.152c0,29.352,48.809,53.148,109.016,53.148
			c60.207,0,109.016-23.797,109.016-53.148C919.074,930.543,870.266,906.746,810.059,906.746z"/>
		<path style="fill:#FFFFFF;" d="M1449.879,402.578c-71.797-36.957-181.328-39.152-180.461,74.594
			c0.418,55.238,38.703,73.945,82.074,93.801c57.344,26.258,104.602,56.254,153.016,90.394
			c22.617,15.949,45.484,32.801,69.754,50.606c117.223,86.008,97.684-68.344,60.082-136.422
			c-6.535-11.824-13.504-22.984-20.813-33.672C1571.543,480.5,1516.84,437.059,1449.879,402.578z"/>
	</g>
</g>
</svg>
